<?xml version="1.0" encoding="UTF-8" standalone="no"?>
<svg width="64px" height="64px" viewBox="0 0 64 64" version="1.1" xmlns="http://www.w3.org/2000/svg" xmlns:xlink="http://www.w3.org/1999/xlink" xmlns:sketch="http://www.bohemiancoding.com/sketch/ns">
    <!-- Generator: Sketch 3.3.3 (12081) - http://www.bohemiancoding.com/sketch -->
    <title>icon_focus-group</title>
    <desc>Created with Sketch.</desc>
    <defs></defs>
    <g id="Icons" stroke="none" stroke-width="1" fill="none" fill-rule="evenodd" sketch:type="MSPage">
        <g id="icon_focus-group" sketch:type="MSArtboardGroup" stroke-linecap="round" stroke-width="3" stroke-linejoin="round">
            <g id="Path-Copy-44-+-search-copy" sketch:type="MSLayerGroup" transform="translate(3.000000, 1.000000)">
                <path d="M30.515443,30.9225752 C29.8481005,33.7449711 28.5869941,34.6825102 28.5869941,34.6825102 L28.6221328,38.8111325 C28.6221328,38.8111325 29.6762942,39.3922175 34.1118808,41.1938464 C38.5501704,42.9928219 37.1581369,41.644917 40.7720182,43.4040922 C46.4834104,46.1848095 46.4834104,53.8344355 46.4834104,53.8344355 C46.4834104,54.9992589 45.5238533,55.938547 44.337246,55.938547 L2.86005102,55.938547 C1.6788497,55.938547 0.716589592,54.9992589 0.716589592,53.8397422 C0.716589592,53.8344355 0.716589592,46.1848095 6.42527879,43.4040922 C10.0418631,41.644917 8.65253254,43.0724226 13.0908222,41.2707937 C17.5291118,39.4771249 18.5724612,38.8482795 18.5724612,38.8482795 L18.6184118,34.7037371 C18.6184118,34.7037371 16.9560805,33.459313 16.4425147,29.5615327 C15.3991652,29.8560552 15.061293,28.3675224 14.9964215,27.4202742 C14.939659,26.5022129 14.3936575,23.6445483 15.6640571,23.9019238 C15.4018682,21.9941607 15.2153627,20.2694791 15.304561,19.3593779 C15.6235124,16.1567769 18.7751846,12.8135481 23.6297328,12.566786" id="Path-Copy-44" stroke="#215CFF" sketch:type="MSShapeGroup"></path>
                <path d="M42.950145,7.15093154 C49.2444744,10.6399353 51.5215051,18.5680401 48.034735,24.8583397 C44.5483053,31.1480254 36.6179085,33.4188633 30.323579,29.9298595 C24.0274063,26.439834 21.750716,18.5111153 25.2371457,12.2214296 C28.7239157,5.93112993 36.6539722,3.66090599 42.950145,7.15093154 L42.950145,7.15093154 Z M47.1547778,35.9696584 L43.5988999,30.0516837 M49.075301,34.7918518 L58.083525,49.7840542 L54.1631264,52.1396673 L45.1549024,37.1474649 L49.075301,34.7918518 Z" id="search-copy" stroke="#FFD605" sketch:type="MSShapeGroup"></path>
            </g>
        </g>
    </g>
</svg>