<?xml version="1.0" encoding="UTF-8" standalone="no"?>
<svg width="64px" height="64px" viewBox="0 0 64 64" version="1.1" xmlns="http://www.w3.org/2000/svg" xmlns:xlink="http://www.w3.org/1999/xlink" xmlns:sketch="http://www.bohemiancoding.com/sketch/ns">
    <!-- Generator: Sketch 3.3.3 (12081) - http://www.bohemiancoding.com/sketch -->
    <title>compass</title>
    <desc>Created with Sketch.</desc>
    <defs></defs>
    <g id="Icons" stroke="none" stroke-width="1" fill="none" fill-rule="evenodd" sketch:type="MSPage">
        <g id="compass" sketch:type="MSArtboardGroup" stroke="#215CFF" stroke-width="4">
            <path d="M33,58 C45.7025492,58 56,47.7025492 56,35 C56,22.2974508 45.7025492,12 33,12 C20.2974508,12 10,22.2974508 10,35 C10,47.7025492 20.2974508,58 33,58 L33,58 L33,58 Z" id="Oval-42-Copy" sketch:type="MSShapeGroup"></path>
            <path d="M33,11.5 L33,5.5" id="Line-Copy-4" stroke-linecap="round" stroke-linejoin="round" sketch:type="MSShapeGroup"></path>
            <g id="Line-+-Line-Copy-2-+-Line-+-Line-Copy-3-Copy-Copy" sketch:type="MSLayerGroup" transform="translate(11.000000, 13.000000)" stroke-linecap="round" stroke-linejoin="round">
                <g id="Line-+-Line-Copy-2-+-Line-+-Line-Copy-3" sketch:type="MSShapeGroup">
                    <g id="Line-+-Line-Copy-2" transform="translate(20.000000, 0.000000)">
                        <path d="M2,0.5 L2,3.5" id="Line"></path>
                        <path d="M2,40.5 L2,43.5" id="Line-Copy-2"></path>
                    </g>
                    <g id="Line-+-Line-Copy-3" transform="translate(22.000000, 22.000000) rotate(-90.000000) translate(-22.000000, -22.000000) translate(19.000000, 0.000000)">
                        <path d="M3,0.5 L3,3.5" id="Line"></path>
                        <path d="M3,40.5 L3,43.5" id="Line-Copy-2"></path>
                    </g>
                </g>
            </g>
            <path d="M29,34.5 L33.5,21 L38,34.5 L33.5,48 L29,34.5 Z" id="Rectangle-435" stroke-linejoin="round" sketch:type="MSShapeGroup" transform="translate(33.500000, 34.500000) rotate(-30.000000) translate(-33.500000, -34.500000) "></path>
            <path d="M27.5,5 L38.5,5" id="Line" stroke-linecap="round" sketch:type="MSShapeGroup"></path>
        </g>
    </g>
</svg>