<?xml version="1.0" encoding="UTF-8" standalone="no"?>
<svg width="80px" height="80px" viewBox="0 0 80 80" version="1.1" xmlns="http://www.w3.org/2000/svg" xmlns:xlink="http://www.w3.org/1999/xlink" xmlns:sketch="http://www.bohemiancoding.com/sketch/ns">
    <!-- Generator: Sketch 3.3.3 (12081) - http://www.bohemiancoding.com/sketch -->
    <title>Rectangle 5 Copy 3 + Imported Layers + Path</title>
    <desc>Created with Sketch.</desc>
    <defs></defs>
    <g id="Page-1" stroke="none" stroke-width="1" fill="none" fill-rule="evenodd" sketch:type="MSPage">
        <g id="Interactive-Display" sketch:type="MSArtboardGroup" transform="translate(-530.000000, -1573.000000)">
            <g id="Rectangle-5-Copy-3-+-Imported-Layers-+-Path" sketch:type="MSLayerGroup" transform="translate(530.000000, 1573.000000)">
                <rect id="Rectangle-5-Copy-3" fill="#FFFFFF" sketch:type="MSShapeGroup" x="0" y="0" width="80" height="80"></rect>
                <g id="Imported-Layers-+-Path" transform="translate(16.000000, 16.000000)" stroke-width="4" sketch:type="MSShapeGroup" stroke-linecap="round" stroke-linejoin="round">
                    <path d="M13.545,21.93 L8.266,27.211 L2.984,21.93 L13.545,21.93 L13.545,21.93 Z M27.327,3.731 C27.327,3.731 8.266,3.754 8.266,27.211 M33.416,15.086 L48.5,15.086 L48.5,0 L33.416,0 L33.416,15.086 L33.416,15.086 Z" id="Imported-Layers" stroke="#215CFF"></path>
                    <path d="M0.5,48.039 L15.585,48.039 L15.585,32.953 L0.5,32.953 L0.5,48.039 L0.5,48.039 Z M21.676,44.271 C21.676,44.271 40.737,44.249 40.737,20.791 M35.455,26.073 L40.737,20.791 L46.018,26.073 L35.455,26.073 L35.455,26.073 Z" id="Path" stroke="#FFD605"></path>
                </g>
            </g>
        </g>
    </g>
</svg>