<?xml version="1.0" encoding="UTF-8" standalone="no"?>
<svg width="504px" height="374px" viewBox="0 0 504 374" version="1.1" xmlns="http://www.w3.org/2000/svg" xmlns:xlink="http://www.w3.org/1999/xlink" xmlns:sketch="http://www.bohemiancoding.com/sketch/ns">
    <!-- Generator: Sketch 3.3.2 (12043) - http://www.bohemiancoding.com/sketch -->
    <title>pictogram_interactive_display_screen</title>
    <desc>Created with Sketch.</desc>
    <defs></defs>
    <g id="Styles" stroke="none" stroke-width="1" fill="none" fill-rule="evenodd" sketch:type="MSPage">
        <g id="pictogram_interactive_display_screen" sketch:type="MSArtboardGroup">
            <path d="M133.09564,3.86042122 C134.007719,2.2806542 136.026188,1.73847883 137.612876,2.65455359 L283.803886,87.0579729 C285.386608,87.9717576 285.932516,89.9892928 285.018192,91.5729477 L229.173243,188.299236 C228.261164,189.879003 226.242696,190.421179 224.656008,189.505104 L78.464997,105.101685 C76.8822755,104.1879 76.3363675,102.170365 77.2506911,100.58671 L133.09564,3.86042122 Z M138.973361,14.8230445 L272.400994,91.8575243 L223.869401,175.916709 L90.4417679,98.882229 L138.973361,14.8230445 L138.973361,14.8230445 Z M120.650562,72.0922814 L126.268562,85.2850149 L127.955955,99.0663632 L133.484688,97.5959197 L135.959363,88.1098376 L154.833442,83.1173662 L154.310856,110.956225 L161.021114,110.158181 L170.5615,78.9518995 L181.278871,76.1072815 C183.946904,75.3944745 186.706876,73.9446666 188.652832,72.2394758 C190.41648,70.6631283 191.293086,69.0428439 190.982772,67.8980284 C190.824003,67.2893955 190.323093,66.7465884 189.50634,66.275036 C187.019291,64.8391377 182.360072,64.5486447 178.418043,65.5988607 L167.755447,68.4165781 L144.877523,46.7999697 L137.446243,48.7618954 L151.976838,72.6016298 L133.11434,77.5910338 L126.187743,70.6072068 L120.650562,72.0922814 M212.668973,24.680631 L205.064864,37.8513337 M222.650858,40.9510734 L218.83828,47.5546523 M206.620259,78.1817912 L248.488679,102.354535 M178.994266,126.031414 L220.862686,150.204157 M185.900765,114.069008 L227.769185,138.241752 M192.807263,102.106603 L234.675683,126.279346 M199.713761,90.1441968 L241.582181,114.31694 M226.822205,77.7234855 L189.18179,142.918597" id="travel" stroke="#EBEBEB" stroke-width="4" stroke-linecap="round" stroke-linejoin="round" sketch:type="MSShapeGroup"></path>
            <g id="LIVE-+-Rectangle-234-Copy-3" sketch:type="MSLayerGroup" transform="translate(389.874941, 155.604009) rotate(-330.000000) translate(-389.874941, -155.604009) translate(301.586666, 85.079829)">
                <path d="M0,3.29875856 C0,1.47690452 1.47347778,3.41177492e-13 3.29219047,3.41177492e-13 L173.28436,3.41177492e-13 C175.102587,3.41177492e-13 176.576551,1.47981968 176.576551,3.29875856 L176.576551,113.741371 C176.576551,115.563225 175.103073,117.040129 173.28436,117.040129 L3.29219047,117.040129 C1.47396388,117.040129 0,115.56031 0,113.741371 L0,3.29875856 Z M10.6409594,9.75334412 L165.721234,9.75334412 L165.721234,105.786271 L10.6409594,105.786271 L10.6409594,9.75334412 L10.6409594,9.75334412 Z" id="Rectangle-234-Copy-3" stroke="#EBEBEB" stroke-width="4.4" stroke-linecap="round" stroke-linejoin="round" sketch:type="MSShapeGroup"></path>
                <path d="M54.4283936,69.8341014 C54.4283936,70.197301 54.7257178,70.5241805 55.1345386,70.5241805 L68.3654655,70.5241805 C68.7742863,70.5241805 69.0716105,70.197301 69.0716105,69.8341014 L69.0716105,67.836504 C69.0716105,67.4733045 68.7742863,67.1464249 68.3654655,67.1464249 L58.2936082,67.1464249 L58.2936082,45.7902926 C58.2936082,45.4270931 57.9591185,45.1002135 57.5874632,45.1002135 L55.1345386,45.1002135 C54.7257178,45.1002135 54.4283936,45.4270931 54.4283936,45.7902926 L54.4283936,69.8341014 Z M72.9739907,69.8341014 C72.9739907,70.197301 73.3084804,70.5241805 73.6801356,70.5241805 L76.1330603,70.5241805 C76.5047155,70.5241805 76.8392053,70.197301 76.8392053,69.8341014 L76.8392053,45.7902926 C76.8392053,45.4270931 76.5047155,45.1002135 76.1330603,45.1002135 L73.6801356,45.1002135 C73.3084804,45.1002135 72.9739907,45.4270931 72.9739907,45.7902926 L72.9739907,69.8341014 Z M91.9284085,70.4878606 C92.0399051,70.7057803 92.3000638,70.8873801 92.5602224,70.8873801 L92.9318777,70.8873801 C93.2292019,70.8873801 93.452195,70.7057803 93.5636916,70.4878606 L104.973508,46.0445323 C105.196501,45.5723729 104.899177,45.1002135 104.341694,45.1002135 L101.702942,45.1002135 C101.368452,45.1002135 101.145459,45.3181333 101.071128,45.499733 L92.8947122,63.4781097 L92.671719,63.4781097 L84.4953035,45.499733 C84.4209724,45.3181333 84.1608137,45.1002135 83.8634895,45.1002135 L81.2247372,45.1002135 C80.6672544,45.1002135 80.3699302,45.5723729 80.5929233,46.0445323 L91.9284085,70.4878606 Z M108.727226,69.8341014 C108.727226,70.197301 109.02455,70.5241805 109.433371,70.5241805 L124.299581,70.5241805 C124.708402,70.5241805 125.005726,70.197301 125.005726,69.8341014 L125.005726,67.836504 C125.005726,67.4733045 124.708402,67.1464249 124.299581,67.1464249 L112.555275,67.1464249 L112.555275,59.3376351 L122.47847,59.3376351 C122.850125,59.3376351 123.184615,59.0470754 123.184615,58.647556 L123.184615,56.6136386 C123.184615,56.2504391 122.850125,55.9235595 122.47847,55.9235595 L112.555275,55.9235595 L112.555275,48.5142891 L124.299581,48.5142891 C124.708402,48.5142891 125.005726,48.1874095 125.005726,47.82421 L125.005726,45.7902926 C125.005726,45.4270931 124.708402,45.1002135 124.299581,45.1002135 L109.433371,45.1002135 C109.02455,45.1002135 108.727226,45.4270931 108.727226,45.7902926 L108.727226,69.8341014 Z" id="LIVE" fill="#EBEBEB" sketch:type="MSShapeGroup"></path>
                <path d="M80.227172,119.389673 L80.227172,140.438523" id="Line" stroke="#EBEBEB" stroke-width="4.4" stroke-linecap="round" stroke-linejoin="round" sketch:type="MSShapeGroup"></path>
                <path d="M97.1171029,119.389673 L97.1171029,131.435437" id="Line-Copy" stroke="#EBEBEB" stroke-width="4.4" stroke-linecap="round" stroke-linejoin="round" sketch:type="MSShapeGroup"></path>
            </g>
            <path d="M58.5006349,132.306944 C59.4127808,130.727061 61.431304,130.184791 63.017992,131.100866 L209.209003,215.504285 C210.791724,216.41807 211.337578,218.435699 210.423187,220.01947 L154.574139,316.75286 C153.661993,318.332743 151.643469,318.875012 150.056781,317.958938 L3.86577088,233.555518 C2.28304933,232.641734 1.73719551,230.624105 2.65158621,229.040333 L58.5006349,132.306944 Z M64.9374622,143.592923 L198.365095,220.627403 L149.829939,304.692758 L16.4023064,227.658279 L64.9374622,143.592923 L64.9374622,143.592923 Z M155.692202,238.040557 L147.58406,240.873582 L150.464023,244.430039 L141.860407,247.470788 M157.552304,231.088995 C159.240387,232.063611 165.055287,235.547527 166.974753,236.655731 C171.508326,239.27319 177.560224,237.278476 180.492045,232.200412 C183.423867,227.122348 182.125391,220.883894 177.591819,218.266435 C174.728187,216.613116 171.25877,216.799971 168.352525,218.441712 C167.774276,217.58642 167.012214,216.857354 166.079763,216.319003 C162.62208,214.322709 158.064787,215.666671 155.597744,219.299505 C155.314055,218.958466 154.970401,218.664157 154.570223,218.433114 C152.548495,217.265868 149.849675,218.155403 148.542241,220.419945 C147.234807,222.684487 147.813857,225.466501 149.835586,226.633746 L157.552304,231.088995 Z M83.8039171,199.145196 C79.7507974,196.805126 74.7542715,197.439438 71.1380061,200.349881 C70.6708988,199.871148 70.133448,199.44947 69.5293986,199.100722 C65.7685511,196.929396 60.850243,198.407324 58.5440501,202.401767 C56.2378572,206.396211 57.9424959,210.484521 61.7033434,212.655847 L72.42849,218.848014 L82.3024344,224.548738 C85.4051337,226.340082 88.9373297,226.030825 90.8399388,222.735409 C92.742548,219.439994 91.7696828,215.31636 88.6669836,213.525016 C88.5699364,213.468985 88.471955,213.415901 88.3731346,213.365733 C90.4837122,208.020719 88.6443288,201.939809 83.8039171,199.145196 Z M93.1063876,222.158933 C98.8418961,220.939813 102.497476,215.275267 101.271354,209.506815 C100.045232,203.738364 94.4017147,200.050402 88.6662061,201.269522 M119.132703,175.870094 C116.136277,175.018107 106.540996,177.097998 103.436592,176.868462 L100.305027,172.133656 C98.565114,172.005008 94.9506192,175.471834 93.3223803,176.08699 C87.616663,178.242637 85.4297226,179.158866 79.3862963,180.03685 C70.5328728,181.32307 59.7259506,175.639552 53.5941628,182.219647 C50.6109274,185.420993 42.3158108,188.36998 38.7175841,190.865941 M25.5194988,212.629017 C28.3086486,224.262314 23.0769818,215.763845 69.2961586,247.926464 C72.3689573,250.064738 71.6450135,255.08322 73.5778617,258.283534 C74.8909502,260.457681 76.7148811,262.4239 78.8687773,263.776331 M145.157615,299.021117 C147.447997,295.715755 147.232712,290.920255 149.938796,287.944441 C154.939134,282.445693 162.909682,280.083525 167.611831,274.328772 M82.6096938,282.753669 L78.7968359,289.357733 M68.0779714,274.363775 L60.4733044,287.535445" id="weather" stroke="#EBEBEB" stroke-width="4" stroke-linecap="round" stroke-linejoin="round" sketch:type="MSShapeGroup"></path>
            <path d="M338.571663,272.470096 L341.572862,279.475349 M341.572862,272.470096 L338.571663,279.475349 M259.65188,278.752079 L282.554835,272.642572 L311.370347,284.196621 L340.455592,275.753233 M309.758613,280.439917 L312.759812,287.445169 M312.759812,280.439917 L309.758613,287.445169 M281.714769,269.521305 L284.715968,276.526557 M284.715968,269.521305 L281.714769,276.526557 M289.913192,223.287078 L257.17927,279.983895 M347.672269,332.230052 L257.17927,279.983895 M270.784853,184.417791 C271.695885,182.839836 273.713506,182.29913 275.300194,183.215205 L421.491205,267.618624 C423.073926,268.532409 423.617195,270.554515 422.707405,272.130318 L366.646896,369.229967 C365.735864,370.807922 363.718243,371.348628 362.131555,370.432553 L215.940544,286.029134 C214.357823,285.115349 213.814554,283.093243 214.724344,281.51744 L270.784853,184.417791 Z M276.262521,196.073326 L409.690154,273.107805 L360.9848,357.467953 L227.557167,280.433473 L276.262521,196.073326 L276.262521,196.073326 Z M295.719839,334.959404 L286.566462,350.813517 M281.188116,326.56951 L273.556782,339.787369" id="finance" stroke="#EBEBEB" stroke-width="4" stroke-linecap="round" stroke-linejoin="round" sketch:type="MSShapeGroup"></path>
        </g>
    </g>
</svg>