<?xml version="1.0" encoding="UTF-8" standalone="no"?>
<svg width="80px" height="80px" viewBox="0 0 80 80" version="1.1" xmlns="http://www.w3.org/2000/svg" xmlns:xlink="http://www.w3.org/1999/xlink" xmlns:sketch="http://www.bohemiancoding.com/sketch/ns">
    <!-- Generator: Sketch 3.3.3 (12081) - http://www.bohemiancoding.com/sketch -->
    <title>Rectangle 5 + presentation</title>
    <desc>Created with Sketch.</desc>
    <defs></defs>
    <g id="Page-1" stroke="none" stroke-width="1" fill="none" fill-rule="evenodd" sketch:type="MSPage">
        <g id="Interactive-Display" sketch:type="MSArtboardGroup" transform="translate(-530.000000, -1252.000000)">
            <g id="Rectangle-5-+-presentation" sketch:type="MSLayerGroup" transform="translate(530.000000, 1252.000000)">
                <rect id="Rectangle-5" fill="#FFFFFF" sketch:type="MSShapeGroup" x="0" y="0" width="80" height="80"></rect>
                <g id="presentation" transform="translate(9.000000, 10.000000)" stroke-width="4" sketch:type="MSShapeGroup" stroke-linecap="round" stroke-linejoin="round">
                    <path d="M61.1472868,0.43997672 L0.124031008,0.43997672 M53.3172403,36.4782684 L7.96043411,36.4782684 C6.5619845,36.4782684 5.41779845,35.3345184 5.41779845,33.9366017 L5.41779845,2.98164339 M55.8611473,2.98164339 L55.8611473,33.9366017 C55.8611473,35.3345184 54.7169612,36.4782684 53.3172403,36.4782684 L53.3172403,36.4782684 M29.9567752,55.9033934 L29.9567752,37.7160601 L29.9567752,55.9033934 Z M14.2293023,60.7842267 L29.9567752,48.3059142 L14.2293023,60.7842267 L14.2293023,60.7842267 Z M45.6855194,60.7842267 L29.9567752,48.3059142 L45.6855194,60.7842267 L45.6855194,60.7842267 Z" id="Stroke-2" stroke="#215CFF"></path>
                    <path d="M44.2298751,21.2599617 C46.0151971,19.8643543 47.1627907,17.6911435 47.1627907,15.25 C47.1627907,11.0388288 43.7476604,7.625 39.5348837,7.625 C36.6719088,7.625 34.1773245,9.2016669 32.8726759,11.5337688 M29.3213438,11.0559147 C25.7362147,11.0559147 22.6644616,13.228408 21.3801686,16.3141097 C20.8869266,16.1850531 20.3688719,16.1162925 19.8345687,16.1162925 C16.5079647,16.1162925 13.8112194,18.7817141 13.8112194,22.0696782 C13.8112194,25.3576423 16.5079647,28.0230639 19.8345687,28.0230639 L29.3213438,28.0230639 L38.0552003,28.0230639 C40.7996486,28.0230639 43.0244635,25.8240911 43.0244635,23.1115207 C43.0244635,20.3989503 40.7996486,18.1999775 38.0552003,18.1999775 C37.9693586,18.1999775 37.8840253,18.2021288 37.7992525,18.2063799 C37.1521919,14.1543625 33.6028608,11.0559147 29.3213438,11.0559147 Z" id="Oval-1" stroke="#FFD605"></path>
                </g>
            </g>
        </g>
    </g>
</svg>