<?xml version="1.0" encoding="UTF-8" standalone="no"?>
<svg width="64px" height="64px" viewBox="0 0 64 64" version="1.1" xmlns="http://www.w3.org/2000/svg" xmlns:xlink="http://www.w3.org/1999/xlink" xmlns:sketch="http://www.bohemiancoding.com/sketch/ns">
    <!-- Generator: Sketch 3.3.3 (12081) - http://www.bohemiancoding.com/sketch -->
    <title>icon_time-to-respond</title>
    <desc>Created with Sketch.</desc>
    <defs></defs>
    <g id="Icons" stroke="none" stroke-width="1" fill="none" fill-rule="evenodd" sketch:type="MSPage">
        <g id="icon_time-to-respond" sketch:type="MSArtboardGroup" stroke-width="3">
            <path d="M32,58 C44.7025492,58 55,47.7025492 55,35 C55,22.2974508 44.7025492,12 32,12 C19.2974508,12 9,22.2974508 9,35 C9,47.7025492 19.2974508,58 32,58 L32,58 L32,58 Z" id="Oval-42" stroke="#215CFF" sketch:type="MSShapeGroup"></path>
            <path d="M31.5,11.5 L31.5,5.5" id="Line" stroke="#215CFF" stroke-linecap="round" stroke-linejoin="round" sketch:type="MSShapeGroup"></path>
            <path d="M35,5.5 L29,5.5" id="Line-Copy" stroke="#215CFF" stroke-linecap="round" stroke-linejoin="round" sketch:type="MSShapeGroup"></path>
            <g id="Line-+-Line-Copy-2-+-Line-+-Line-Copy-3" sketch:type="MSLayerGroup" transform="translate(15.000000, 18.000000)" stroke="#215CFF" stroke-linecap="round" stroke-linejoin="round">
                <g id="Line-+-Line-Copy-2" transform="translate(15.000000, 0.000000)" sketch:type="MSShapeGroup">
                    <path d="M1.5,0.5 L1.5,3.5" id="Line"></path>
                    <path d="M1.5,30.5 L1.5,33.5" id="Line-Copy-2"></path>
                </g>
                <g id="Line-+-Line-Copy-3" transform="translate(17.000000, 17.500000) rotate(-90.000000) translate(-17.000000, -17.500000) translate(15.500000, 0.500000)" sketch:type="MSShapeGroup">
                    <path d="M1.5,0.5 L1.5,3.5" id="Line"></path>
                    <path d="M1.5,30.5 L1.5,33.5" id="Line-Copy-2"></path>
                </g>
            </g>
            <g id="Line-+-Line-Copy-2-+-Line-+-Line-Copy-3-Copy" sketch:type="MSLayerGroup" transform="translate(32.353553, 35.353553) rotate(-45.000000) translate(-32.353553, -35.353553) translate(14.353553, 17.853553)" stroke="#215CFF" stroke-linecap="round" stroke-linejoin="round">
                <g id="Line-+-Line-Copy-2" transform="translate(16.000000, 0.000000)" sketch:type="MSShapeGroup">
                    <path d="M1.5,0.5 L1.5,3.5" id="Line"></path>
                    <path d="M1.5,30.5 L1.5,33.5" id="Line-Copy-2"></path>
                </g>
                <g id="Line-+-Line-Copy-3" transform="translate(18.500000, 17.500000) rotate(-90.000000) translate(-18.500000, -17.500000) translate(17.000000, 0.000000)" sketch:type="MSShapeGroup">
                    <path d="M1.5,0.5 L1.5,3.5" id="Line"></path>
                    <path d="M1.5,30.5 L1.5,33.5" id="Line-Copy-2"></path>
                </g>
            </g>
            <path d="M32,35.5 L42.0613234,42.0398602" id="Line-Copy-4" stroke="#FFD605" stroke-linecap="round" stroke-linejoin="round" sketch:type="MSShapeGroup"></path>
        </g>
    </g>
</svg>