<?xml version="1.0" encoding="UTF-8" standalone="no"?>
<svg width="64px" height="64px" viewBox="0 0 64 64" version="1.1" xmlns="http://www.w3.org/2000/svg" xmlns:xlink="http://www.w3.org/1999/xlink" xmlns:sketch="http://www.bohemiancoding.com/sketch/ns">
    <!-- Generator: Sketch 3.3.3 (12081) - http://www.bohemiancoding.com/sketch -->
    <title>icon_story-you-want</title>
    <desc>Created with Sketch.</desc>
    <defs></defs>
    <g id="Icons" stroke="none" stroke-width="1" fill="none" fill-rule="evenodd" sketch:type="MSPage">
        <g id="icon_story-you-want" sketch:type="MSArtboardGroup" stroke="#215CFF" stroke-width="3" stroke-linecap="round" stroke-linejoin="round">
            <path d="M10,5 L58.6420392,5 L58.6420392,57.7058824 L10,57.7058824 L10,5 L10,5 Z M4,57.7058824 L4,11.8341961 L4,57.7058824 L4,57.7058824 Z M17.6407843,14.4478431 L51.6407843,14.4478431 M17.6407843,21.4478431 L43.6407843,21.4478431 M44.3596863,31.0130196 L51.3596863,31.0130196 L44.3596863,31.0130196 M17.3596863,31.0130196 L24.3596863,31.0130196 L17.3596863,31.0130196 L17.3596863,31.0130196 Z M31,31 L38,31 L31,31 L31,31 Z M44.3596863,47.0130196 L51.3596863,47.0130196 L44.3596863,47.0130196 L44.3596863,47.0130196 Z M17.3596863,47.0130196 L24.3596863,47.0130196 L17.3596863,47.0130196 L17.3596863,47.0130196 Z M44.3596863,39.0130196 L51.3596863,39.0130196 L44.3596863,39.0130196 L44.3596863,39.0130196 Z M17.3596863,39.0130196 L24.3596863,39.0130196 L17.3596863,39.0130196 L17.3596863,39.0130196 Z M30.6360784,38.7377255 L38.1358431,38.7377255 L38.1358431,47.0498824 L30.6360784,47.0498824 L30.6360784,38.7377255 L30.6360784,38.7377255 Z" id="Imported-Layers" sketch:type="MSShapeGroup"></path>
        </g>
    </g>
</svg>