<?xml version="1.0" encoding="UTF-8" standalone="no"?>
<svg width="64px" height="64px" viewBox="0 0 64 64" version="1.1" xmlns="http://www.w3.org/2000/svg" xmlns:xlink="http://www.w3.org/1999/xlink" xmlns:sketch="http://www.bohemiancoding.com/sketch/ns">
    <!-- Generator: Sketch 3.3.3 (12081) - http://www.bohemiancoding.com/sketch -->
    <title>line_finance</title>
    <desc>Created with Sketch.</desc>
    <defs></defs>
    <g id="Icons" stroke="none" stroke-width="1" fill="none" fill-rule="evenodd" sketch:type="MSPage">
        <g id="line_finance" sketch:type="MSArtboardGroup" stroke-width="3" stroke-linecap="round" stroke-linejoin="round">
            <path d="M51.773774,43.6773654 C50.6340706,43.6773654 49.7099095,42.7515107 49.7099095,41.6111171 C49.7099095,40.473584 50.6340706,39.5496364 51.773774,39.5496364 C52.9134773,39.5496364 53.8376385,40.473584 53.8376385,41.6111171 C53.8376385,42.7515107 52.9134773,43.6773654 51.773774,43.6773654 Z" id="Stroke-1" stroke="#215CFF" sketch:type="MSShapeGroup"></path>
            <path d="M53.8376385,25.1797374 C53.8376385,26.3209218 52.9134773,27.244556 51.773774,27.244556 C50.6340706,27.244556 49.7099095,26.3209218 49.7099095,25.1797374 C49.7099095,24.0414154 50.6340706,23.116827 51.773774,23.116827 C52.9134773,23.116827 53.8376385,24.0414154 53.8376385,25.1797374 L53.8376385,25.1797374" id="Path" stroke="#215CFF" sketch:type="MSShapeGroup"></path>
            <path d="M42.8154738,33.393659 C42.8154738,38.8615641 39.6736024,43.2933006 35.7983344,43.2933006 C31.9230665,43.2933006 28.7811951,38.8615641 28.7811951,33.393659 C28.7811951,27.9223229 31.9230665,23.4905864 35.7983344,23.4905864 C39.6736024,23.4905864 42.8154738,27.9223229 42.8154738,33.393659 L42.8154738,33.393659 L42.8154738,33.393659 Z" id="Path" stroke="#215CFF" sketch:type="MSShapeGroup"></path>
            <path d="M20.7876189,48.9139368 L60.9786933,49.1794321 L60.9786933,16.7788206 L19.959029,16.7788206" id="Path" stroke="#215CFF" sketch:type="MSShapeGroup"></path>
            <path d="M20.979916,47 C20.979916,49.0231258 17.1784881,50.6610895 12.489958,50.6610895 C7.80245223,50.6610895 4,49.0231258 4,47" id="Path" stroke="#FFD605" sketch:type="MSShapeGroup"></path>
            <path d="M20.979916,39 C20.979916,41.0231258 17.1784881,42.6610895 12.489958,42.6610895 C7.80245223,42.6610895 4,41.0231258 4,39" id="Path" stroke="#FFD605" sketch:type="MSShapeGroup"></path>
            <path d="M20.979916,31 C20.979916,33.0231258 17.1784881,34.6610895 12.489958,34.6610895 C7.80245223,34.6610895 4,33.0231258 4,31" id="Path" stroke="#FFD605" sketch:type="MSShapeGroup"></path>
            <path d="M20.979916,23 C20.979916,25.0231258 17.1784881,26.6610895 12.489958,26.6610895 C7.80245223,26.6610895 4,25.0231258 4,23" id="Path" stroke="#FFD605" sketch:type="MSShapeGroup"></path>
            <path d="M20.5335104,14.6590408 C20.5335104,16.6821666 16.7320825,18.3201303 12.0435524,18.3201303 C7.35604659,18.3201303 3.55359436,16.6821666 3.55359436,14.6590408 C3.55359436,12.6379637 7.35604659,11 12.0435524,11 C16.7320825,11 20.5335104,12.6379637 20.5335104,14.6590408 L20.5335104,14.6590408 L20.5335104,14.6590408 Z" id="Path" stroke="#FFD605" sketch:type="MSShapeGroup"></path>
        </g>
        <rect id="Rectangle-365" stroke="#D0011B" stroke-width="3" sketch:type="MSShapeGroup" x="-25" y="-25" width="2119" height="277"></rect>
    </g>
</svg>