<?xml version="1.0" encoding="UTF-8" standalone="no"?>
<svg width="80px" height="81px" viewBox="0 0 80 81" version="1.1" xmlns="http://www.w3.org/2000/svg" xmlns:xlink="http://www.w3.org/1999/xlink" xmlns:sketch="http://www.bohemiancoding.com/sketch/ns">
    <!-- Generator: Sketch 3.3.3 (12081) - http://www.bohemiancoding.com/sketch -->
    <title>Rectangle 101 Copy 8 + Stroke 1 + Path Copy 6</title>
    <desc>Created with Sketch.</desc>
    <defs></defs>
    <g id="Page-1" stroke="none" stroke-width="1" fill="none" fill-rule="evenodd" sketch:type="MSPage">
        <g id="Interactive-Display" sketch:type="MSArtboardGroup" transform="translate(-530.000000, -6805.000000)">
            <g id="Rectangle-101-Copy-8-+-Stroke-1-+-Path-Copy-6" sketch:type="MSLayerGroup" transform="translate(530.000000, 6805.796776)">
                <rect id="Rectangle-101-Copy-8" fill="#FFFFFF" sketch:type="MSShapeGroup" x="0" y="0" width="80" height="80"></rect>
                <g id="Stroke-1-+-Path-Copy-6" transform="translate(2.000000, 18.000000)" stroke-width="4" sketch:type="MSShapeGroup" stroke-linecap="round" stroke-linejoin="round">
                    <path d="M19.1449476,41.6128575 L63.2571024,41.9042548 L63.2571024,6.34260798 L18.2355196,6.34260798 M43.3218614,24.5784062 C43.3218614,30.5797655 39.8734661,35.4438665 35.6201232,35.4438665 C31.3667803,35.4438665 27.9183849,30.5797655 27.9183849,24.5784062 C27.9183849,18.5732812 31.3667803,13.7091802 35.6201232,13.7091802 C39.8734661,13.7091802 43.3218614,18.5732812 43.3218614,24.5784062 L43.3218614,24.5784062 L43.3218614,24.5784062 Z M55.4193593,15.5631264 C55.4193593,16.8156459 54.4050361,17.8293908 53.1541422,17.8293908 C51.9032482,17.8293908 50.888925,16.8156459 50.888925,15.5631264 C50.888925,14.3137487 51.9032482,13.2989565 53.1541422,13.2989565 C54.4050361,13.2989565 55.4193593,14.3137487 55.4193593,15.5631264 L55.4193593,15.5631264 M53.1541422,35.865401 C51.9032482,35.865401 50.888925,34.8492191 50.888925,33.5975675 C50.888925,32.3490556 51.9032482,31.3349667 53.1541422,31.3349667 C54.4050361,31.3349667 55.4193593,32.3490556 55.4193593,33.5975675 C55.4193593,34.8492191 54.4050361,35.865401 53.1541422,35.865401 Z" id="Stroke-1" stroke="#215CFF"></path>
                    <path d="M18.8660479,40.1688859 C18.8660479,42.3893899 14.6937491,44.1871548 9.54780137,44.1871548 C4.40297797,44.1871548 0.229554788,42.3893899 0.229554788,40.1688859 M18.8660479,32.920191 C18.8660479,35.140695 14.6937491,36.93846 9.54780137,36.93846 C4.40297797,36.93846 0.229554788,35.140695 0.229554788,32.920191 M18.8660479,25.6714962 C18.8660479,27.8920002 14.6937491,29.6897652 9.54780137,29.6897652 C4.40297797,29.6897652 0.229554788,27.8920002 0.229554788,25.6714962 M18.8660479,11.1741065 C18.8660479,13.3946105 14.6937491,15.1923755 9.54780137,15.1923755 C4.40297797,15.1923755 0.229554788,13.3946105 0.229554788,11.1741065 M18.8660479,18.4228014 C18.8660479,20.6433053 14.6937491,22.4410703 9.54780137,22.4410703 C4.40297797,22.4410703 0.229554788,20.6433053 0.229554788,18.4228014 M18.8660479,4.01602037 C18.8660479,6.23652435 14.6937491,8.03428934 9.54780137,8.03428934 C4.40297797,8.03428934 0.229554788,6.23652435 0.229554788,4.01602037 C0.229554788,1.797765 4.40297797,0 9.54780137,0 C14.6937491,0 18.8660479,1.797765 18.8660479,4.01602037 L18.8660479,4.01602037 L18.8660479,4.01602037 Z" id="Path-Copy-6" stroke="#FFD605"></path>
                </g>
            </g>
        </g>
    </g>
</svg>