<?xml version="1.0" encoding="UTF-8" standalone="no"?>
<svg width="77px" height="63px" viewBox="0 0 77 63" version="1.1" xmlns="http://www.w3.org/2000/svg" xmlns:xlink="http://www.w3.org/1999/xlink" xmlns:sketch="http://www.bohemiancoding.com/sketch/ns">
    <!-- Generator: Sketch 3.3.3 (12081) - http://www.bohemiancoding.com/sketch -->
    <title>Imported Layers Copy 2 + a-b_test copy 2</title>
    <desc>Created with Sketch.</desc>
    <defs></defs>
    <g id="Page-1" stroke="none" stroke-width="1" fill="none" fill-rule="evenodd" sketch:type="MSPage">
        <g id="Interactive-Display" sketch:type="MSArtboardGroup" transform="translate(-532.000000, -3404.000000)" stroke-linecap="round" stroke-width="4" stroke-linejoin="round">
            <g id="Imported-Layers-Copy-2-+-a-b_test-copy-2" sketch:type="MSLayerGroup" transform="translate(534.000000, 3406.539845)">
                <path d="M17.5388051,29.4686672 L8.0010348,20 L17.5388051,29.4686672 L17.5388051,29.4686672 Z M19.6704972,20 L8.0010348,20 L8,31.5869695 M17.5388051,40.5313328 L8.0010348,50 L17.5388051,40.5313328 L17.5388051,40.5313328 Z M19.6704972,50 L8.0010348,50 L8,38.4140579 M55.4622297,29.4686672 L65,20 L55.4622297,29.4686672 L55.4622297,29.4686672 Z M53.3295028,20 L65,20 L65,31.5869695 M55.4622297,40.5313328 L65,50 L55.4622297,40.5313328 L55.4622297,40.5313328 Z M53.3295028,50 L65,50 L65,38.4140579" id="Imported-Layers-Copy-2" stroke="#FFD605" sketch:type="MSShapeGroup"></path>
                <path d="M0,0 L73,0 L73,58 L0,58 L0,0 Z M0.328828829,12.5568182 L72.6711712,12.5568182 M5.97727273,5.94318182 L7.30454545,5.94318182 M13.2863636,5.94318182 L14.6136364,5.94318182 M20.5954545,5.94318182 L21.9227273,5.94318182" id="a-b_test-copy-2" stroke="#0038CC" sketch:type="MSShapeGroup"></path>
            </g>
        </g>
    </g>
</svg>