<?xml version="1.0" encoding="UTF-8" standalone="no"?>
<svg width="64px" height="64px" viewBox="0 0 64 64" version="1.1" xmlns="http://www.w3.org/2000/svg" xmlns:xlink="http://www.w3.org/1999/xlink" xmlns:sketch="http://www.bohemiancoding.com/sketch/ns">
    <!-- Generator: Sketch 3.3.3 (12081) - http://www.bohemiancoding.com/sketch -->
    <title>line_maps</title>
    <desc>Created with Sketch.</desc>
    <defs></defs>
    <g id="Icons" stroke="none" stroke-width="1" fill="none" fill-rule="evenodd" sketch:type="MSPage">
        <g id="line_maps" sketch:type="MSArtboardGroup" stroke-width="3" stroke-linecap="round" stroke-linejoin="round">
            <path d="M39.821,55.12 L55.819,47.483 L55.819,7.12 L39.821,14.753 L39.821,55.12 L39.821,55.12 Z" id="Stroke-2" stroke="#215CFF" sketch:type="MSShapeGroup"></path>
            <path d="M23.818,7.12 L7.819,14.753 L7.819,55.12 C7.819,55.12 15.6806777,52.0690096 20.1824457,50.321946" id="Path" stroke="#215CFF" sketch:type="MSShapeGroup"></path>
            <path d="M23.818,21.8139216 L23.818,7.12 L39.821,14.753 L39.821,55.12 L27.3836671,50.1341275" id="Path" stroke="#215CFF" sketch:type="MSShapeGroup"></path>
            <path d="M27.7179138,32.4378026 C27.7179138,34.5939643 25.9750959,36.3376505 23.8163291,36.3376505 C21.6662459,36.3376505 19.9190862,34.5939643 19.9190862,32.4378026 C19.9190862,30.2842459 21.6662459,28.5353495 23.8163291,28.5353495 C25.9750959,28.5353495 27.7179138,30.2842459 27.7179138,32.4378026 L27.7179138,32.4378026 Z" id="marker" stroke="#FFD605" sketch:type="MSShapeGroup"></path>
            <path d="M35.021,33.128 C35.021,39.315 23.816,55.12 23.816,55.12 C23.816,55.12 12.617,39.315 12.617,33.128 C12.617,26.943 17.633,21.923 23.816,21.923 C30.005,21.923 35.021,26.943 35.021,33.128 L35.021,33.128 Z" id="Path" stroke="#FFD605" sketch:type="MSShapeGroup"></path>
        </g>
        <rect id="Rectangle-365" stroke="#D0011B" stroke-width="3" sketch:type="MSShapeGroup" x="-25" y="-179" width="2119" height="277"></rect>
    </g>
</svg>