<?xml version="1.0" encoding="UTF-8" standalone="no"?>
<svg width="64px" height="64px" viewBox="0 0 64 64" version="1.1" xmlns="http://www.w3.org/2000/svg" xmlns:xlink="http://www.w3.org/1999/xlink" xmlns:sketch="http://www.bohemiancoding.com/sketch/ns">
    <!-- Generator: Sketch 3.3.3 (12081) - http://www.bohemiancoding.com/sketch -->
    <title>icon_newsheadline</title>
    <desc>Created with Sketch.</desc>
    <defs></defs>
    <g id="Icons" stroke="none" stroke-width="1" fill="none" fill-rule="evenodd" sketch:type="MSPage">
        <g id="icon_newsheadline" sketch:type="MSArtboardGroup" stroke-width="3" stroke-linecap="round" stroke-linejoin="round">
            <path d="M15.0940808,6 L56.5303621,6 L56.5303621,50.8981129 L15.0940808,50.8981129 L15.0940808,6 L15.0940808,6 Z M49.5303621,57.8981129 L8.09408078,57.8981129 L8.09408078,13 M23.8448623,29.2025612 L30.8448623,29.2025612 L23.8448623,29.2025612 L23.8448623,29.2025612 Z M23.8448623,35.7829409 L30.8448623,35.7829409 L23.8448623,35.7829409 L23.8448623,35.7829409 Z M23.8448623,42.3633206 L30.8448623,42.3633206 L23.8448623,42.3633206 L23.8448623,42.3633206 Z M37.5216378,28.6193754 L48.4575282,28.6193754 L48.4575282,43.6193754 L37.5216378,43.6193754 L37.5216378,28.6193754 L37.5216378,28.6193754 Z" id="Imported-Layers-Copy" stroke="#215CFF" sketch:type="MSShapeGroup"></path>
            <path d="M22.8383316,13.0214995 L48.8383316,13.0214995 L48.8383316,20.5537487 L22.8383316,20.5537487 L22.8383316,13.0214995 Z" id="Path-Copy-3" stroke="#FFD605" sketch:type="MSShapeGroup"></path>
        </g>
    </g>
</svg>