<?xml version="1.0" encoding="UTF-8" standalone="no"?>
<svg width="80px" height="81px" viewBox="0 0 80 81" version="1.1" xmlns="http://www.w3.org/2000/svg" xmlns:xlink="http://www.w3.org/1999/xlink" xmlns:sketch="http://www.bohemiancoding.com/sketch/ns">
    <!-- Generator: Sketch 3.3.3 (12081) - http://www.bohemiancoding.com/sketch -->
    <title>Rectangle 101 Copy 3 + train</title>
    <desc>Created with Sketch.</desc>
    <defs></defs>
    <g id="Page-1" stroke="none" stroke-width="1" fill="none" fill-rule="evenodd" sketch:type="MSPage">
        <g id="Interactive-Display" sketch:type="MSArtboardGroup" transform="translate(-930.000000, -6308.000000)">
            <g id="Rectangle-101-Copy-3-+-train" sketch:type="MSLayerGroup" transform="translate(930.000000, 6308.343911)">
                <rect id="Rectangle-101-Copy-3" fill="#FFFFFF" sketch:type="MSShapeGroup" x="0" y="0" width="80" height="80"></rect>
                <g id="train" transform="translate(3.000000, 11.000000)" stroke-width="4" sketch:type="MSShapeGroup" stroke-linecap="round" stroke-linejoin="round">
                    <path d="M29,47 L36,58 L29,47 Z M14,47 L7,58 L14,47 Z M7,14.005158 C7,10.6910853 9.68922576,8.00449851 13.0088187,8.00449851 L29.9911813,8.00449851 C33.3097602,8.00449851 36,10.6810348 36,14.005158 L36,22.003839 C36,25.3179118 33.3107742,28.0044985 29.9911813,28.0044985 L13.0088187,28.0044985 C9.69023979,28.0044985 7,25.3279622 7,22.003839 L7,14.005158 Z M0,12.0035266 C0,5.92644666 4.93264675,1 11.0037834,1 L31.9962166,1 C38.0734383,1 43,5.92280579 43,12.0035266 L43,35.9964734 C43,42.0735533 38.0673532,47 31.9962166,47 L11.0037834,47 C4.92656166,47 0,42.0771942 0,35.9964734 L0,12.0035266 Z" stroke="#215CFF"></path>
                    <ellipse id="Oval-1" stroke="#FFD605" cx="12.5" cy="37.5" rx="3.5" ry="3.5"></ellipse>
                    <ellipse id="Oval-1-Copy" stroke="#FFD605" cx="30.5" cy="37.5" rx="3.5" ry="3.5"></ellipse>
                </g>
            </g>
        </g>
    </g>
</svg>