<?xml version="1.0" encoding="UTF-8" standalone="no"?>
<svg width="64px" height="64px" viewBox="0 0 64 64" version="1.1" xmlns="http://www.w3.org/2000/svg" xmlns:xlink="http://www.w3.org/1999/xlink" xmlns:sketch="http://www.bohemiancoding.com/sketch/ns">
    <!-- Generator: Sketch 3.3.3 (12081) - http://www.bohemiancoding.com/sketch -->
    <title>icon_social-media</title>
    <desc>Created with Sketch.</desc>
    <defs></defs>
    <g id="Icons" stroke="none" stroke-width="1" fill="none" fill-rule="evenodd" sketch:type="MSPage">
        <g id="icon_social-media" sketch:type="MSArtboardGroup" stroke-width="4" stroke-linecap="round">
            <path d="M16,17.3930288 L16,14.0029268 C16,11.2398866 18.231557,9 21.0093855,9 L55.9906145,9 C58.7572217,9 61,11.2426503 61,13.9960486 L61,37.0039514 C61,39.7631929 58.7533351,42 56.0012645,42 L55,42" id="Rectangle-318" stroke="#215CFF" stroke-linejoin="round" sketch:type="MSShapeGroup"></path>
            <path d="M56.258715,39.3819526 L55.7823733,49.6759304 L50.125519,44.0190761" id="Rectangle-319" stroke="#215CFF" stroke-linejoin="round" sketch:type="MSShapeGroup" transform="translate(53.192117, 44.528941) scale(-1, 1) rotate(-315.000000) translate(-53.192117, -44.528941) "></path>
            <path d="M13,39 L31.4508365,39" id="Path-Copy-37" stroke="#FFD605" fill="#D8D8D8" sketch:type="MSShapeGroup"></path>
            <path d="M13,31 L37.5958918,31" id="Path-Copy-24" stroke="#FFD605" fill="#D8D8D8" sketch:type="MSShapeGroup"></path>
            <path d="M42.9350786,18.4632696 L6.51924084,18.4632696 C4.57561779,18.4632696 3,20.0368995 3,21.9794055 L3,47.8028386 C3,49.7447468 3,51.3454577 7.66525163,51.3454577 M15.4447715,51.3189745 L42.9350786,51.3189745 C44.8787017,51.3189745 46.4543195,49.7453446 46.4543195,47.8028386 L46.4543195,21.9794055 C46.4543195,20.0374973 44.8820854,18.4632696 42.9350786,18.4632696 M7.76937653,51.483074 L7.76937653,56.6361787 C7.76937653,58.0896578 8.59919173,58.4381202 9.63118829,57.4061236 L15.3165381,51.483074" id="speech_bubbles-copy" stroke="#FFD605" stroke-linejoin="round" sketch:type="MSShapeGroup"></path>
        </g>
    </g>
</svg>