<?xml version="1.0" encoding="UTF-8" standalone="no"?>
<svg width="64px" height="64px" viewBox="0 0 64 64" version="1.1" xmlns="http://www.w3.org/2000/svg" xmlns:xlink="http://www.w3.org/1999/xlink" xmlns:sketch="http://www.bohemiancoding.com/sketch/ns">
    <!-- Generator: Sketch 3.3.3 (12081) - http://www.bohemiancoding.com/sketch -->
    <title>line_sport</title>
    <desc>Created with Sketch.</desc>
    <defs></defs>
    <g id="Icons" stroke="none" stroke-width="1" fill="none" fill-rule="evenodd" sketch:type="MSPage">
        <g id="line_sport" sketch:type="MSArtboardGroup" stroke-width="3">
            <path d="M25.0755135,30.124706 C24.2278693,20.4360883 31.3010614,11.9071909 40.8674641,11.0702392 C50.4381987,10.2329084 58.8835166,17.404112 59.7311608,27.0927298 C60.5785493,36.7784244 53.5068651,45.3079262 43.9361305,46.145257 C34.3697279,46.9822088 25.922902,39.8104007 25.0755135,30.124706 Z" id="tennisball" stroke="#215CFF" stroke-linecap="round" stroke-linejoin="round" sketch:type="MSShapeGroup"></path>
            <path d="M29.0000007,49.0000009 L23.1422095,56.5211613 C23.1422095,56.5211613 16.9999998,32 1.43410373,28.3830576" id="Line-Copy" stroke="#FFD605" stroke-linecap="round" stroke-dasharray="2,8" sketch:type="MSShapeGroup"></path>
            <path d="M40.8099819,17.3802209 C38.9902939,15.4526608 36.4112455,14.2496856 33.5512272,14.2496856 C28.0390931,14.2496856 23.5706256,18.7181532 23.5706256,24.2302872 C23.5706256,26.6554004 24.4355598,28.8784974 25.8737715,30.6079213 L25.8737715,30.6079213" id="Oval-42-Copy" stroke="#215CFF" sketch:type="MSShapeGroup" transform="translate(32.190304, 22.428803) rotate(-195.000000) translate(-32.190304, -22.428803) "></path>
            <path d="M62.0230018,30.2721688 C60.2033137,28.3446087 57.6242653,27.1416335 54.764247,27.1416335 C49.252113,27.1416335 44.7836454,31.610101 44.7836454,37.1222351 C44.7836454,39.5473483 45.6485796,41.7704452 47.0867913,43.4998692 L47.0867913,43.4998692" id="Oval-42-Copy-2" stroke="#215CFF" sketch:type="MSShapeGroup" transform="translate(53.403324, 35.320751) rotate(-15.000000) translate(-53.403324, -35.320751) "></path>
        </g>
        <rect id="Rectangle-365" stroke="#D0011B" stroke-width="3" sketch:type="MSShapeGroup" x="-179" y="-178" width="2119" height="277"></rect>
    </g>
</svg>