<?xml version="1.0" encoding="UTF-8" standalone="no"?>
<svg width="64px" height="64px" viewBox="0 0 64 64" version="1.1" xmlns="http://www.w3.org/2000/svg" xmlns:xlink="http://www.w3.org/1999/xlink" xmlns:sketch="http://www.bohemiancoding.com/sketch/ns">
    <!-- Generator: Sketch 3.3.3 (12081) - http://www.bohemiancoding.com/sketch -->
    <title>icon_cloud</title>
    <desc>Created with Sketch.</desc>
    <defs></defs>
    <g id="Icons" stroke="none" stroke-width="1" fill="none" fill-rule="evenodd" sketch:type="MSPage">
        <g id="icon_cloud" sketch:type="MSArtboardGroup" stroke-width="3" stroke-linecap="round" stroke-linejoin="round">
            <path d="M58.8724483,34.7626292 C59.786466,33.4745404 60.4583542,31.9826699 60.8076619,30.3393065 C62.1775424,23.8945257 58.067471,17.5603302 51.6275605,16.1914849 C48.7999331,15.5904542 45.9932859,16.0466272 43.6183731,17.2930363" id="Path" stroke="#FFD605" sketch:type="MSShapeGroup"></path>
            <path d="M32.667972,14 C25.9090045,14 20.1178938,18.0973168 17.6966436,23.9169423 C16.7667449,23.6735419 15.7900675,23.5438596 14.7827569,23.5438596 C8.51118136,23.5438596 3.42706482,28.5708379 3.42706482,34.7719298 C3.42706482,40.9730218 8.51118136,46 14.7827569,46 L32.667972,46 L49.1337256,46 C54.3077755,46 58.5021716,41.8527429 58.5021716,36.7368421 C58.5021716,31.6209413 54.3077755,27.4736842 49.1337256,27.4736842 C48.9718901,27.4736842 48.811013,27.4777416 48.6511927,27.4857591 C47.4313031,19.8436646 40.7398248,14 32.667972,14 Z" id="sun_cloud" stroke="#215CFF" sketch:type="MSShapeGroup"></path>
        </g>
    </g>
</svg>