<?xml version="1.0" encoding="UTF-8" standalone="no"?>
<svg width="64px" height="64px" viewBox="0 0 64 64" version="1.1" xmlns="http://www.w3.org/2000/svg" xmlns:xlink="http://www.w3.org/1999/xlink" xmlns:sketch="http://www.bohemiancoding.com/sketch/ns">
    <!-- Generator: Sketch 3.3.3 (12081) - http://www.bohemiancoding.com/sketch -->
    <title>icon_lightbulb</title>
    <desc>Created with Sketch.</desc>
    <defs></defs>
    <g id="Icons" stroke="none" stroke-width="1" fill="none" fill-rule="evenodd" sketch:type="MSPage">
        <g id="icon_lightbulb" sketch:type="MSArtboardGroup" stroke-width="3" stroke-linecap="round" stroke-linejoin="round">
            <path d="M36.4688244,39.8349702 C36.4688244,43.822948 36.4688244,28.0904762 36.4688244,28.0904762 L33.7585565,29.8973214 L31.0482887,28.0904762 L28.3380208,29.8973214 L25.627753,28.0904762 L25.627753,39.8349702" id="Stroke-8" stroke="#FFD605" sketch:type="MSShapeGroup"></path>
            <path d="M39.0825149,39.8349702 C39.0533722,36.9857143 39.9859375,33.5110119 40.8893601,31.7041667 C41.7927827,29.8973214 46.3098946,25.9813493 46.3098958,17.9906746 C46.3098971,9.99999993 39.0825144,2.79464286 31.0099966,2.79464286 C22.9374788,2.79464286 15.6901042,9.63285714 15.6901042,17.9906746 C15.6901042,26.0952249 20.3037946,30.800744 21.2072173,32.6075893 C22.1106399,34.4144345 22.9832056,36.5424967 23.0140625,39.8349702" id="lightbulb" stroke="#FFD605" sketch:type="MSShapeGroup"></path>
            <path d="M22,41 L21,44 L22,47 L40,47 L41,44 L40,41 L22,41 Z" id="Stroke-10" stroke="#215CFF" sketch:type="MSShapeGroup"></path>
            <path d="M24.5084255,54.4989033 L38.4247966,51.5052449" id="Path" stroke="#215CFF" sketch:type="MSShapeGroup"></path>
            <path d="M39,49.0600014 L39,54 L35.4351151,60.0623512 L26.5930099,60.0623512 L23,54 L23,49.0600014" id="Stroke-9" stroke="#215CFF" sketch:type="MSShapeGroup"></path>
        </g>
    </g>
</svg>