<?xml version="1.0" encoding="UTF-8" standalone="no"?>
<svg width="64px" height="64px" viewBox="0 0 64 64" version="1.1" xmlns="http://www.w3.org/2000/svg" xmlns:xlink="http://www.w3.org/1999/xlink" xmlns:sketch="http://www.bohemiancoding.com/sketch/ns">
    <!-- Generator: Sketch 3.3.3 (12081) - http://www.bohemiancoding.com/sketch -->
    <title>icon_change-how-we-learn</title>
    <desc>Created with Sketch.</desc>
    <defs></defs>
    <g id="Icons" stroke="none" stroke-width="1" fill="none" fill-rule="evenodd" sketch:type="MSPage">
        <g id="icon_change-how-we-learn" sketch:type="MSArtboardGroup" stroke="#215CFF" stroke-width="3" stroke-linecap="round" stroke-linejoin="round">
            <g id="Group" sketch:type="MSLayerGroup" transform="translate(5.000000, 7.000000)">
                <path d="M10.3519802,31.4874834 C12.392565,31.9950269 21.5519802,32.0180957 23.6853135,36.2629937 C24.0529911,36.994597 24.1160265,40.9255112 25.8186468,43.1609541 C27.0860009,44.8249173 29.6089762,45.0116593 31.1519802,46.3446275 C33.8502333,48.6755908 35.4186468,51.6507488 35.4186468,51.6507488 C35.4186468,51.6507488 38.6186468,51.1201365 41.8186468,48.9976875 C39.1519802,43.1609528 50.6814336,39.9984034 53.0186468,35.2017692 C53.8108879,33.5758626 53.6980308,31.8573495 54.0853135,30.426259 C55.6083342,24.7983796 55.6853135,23.0787236 55.6853135,21.4058508 C55.6853135,19.999002 55.6853135,18.7527896 55.1519802,16.6303406 C54.6186468,14.5078916 52.9690158,14.5346297 52.4853135,13.4466671 C51.9054231,12.1423544 51.1493416,10.2802119 50.3519802,9.20176916 C49.7793849,8.42732589 47.8191187,8.25823875 47.1519802,7.60993243 C46.3761656,6.85601776 45.5163198,5.43386406 44.4853135,4.9568712 C43.4270058,4.46724738 41.1292586,4.39580334 40.2186468,3.89564666 C38.4698457,2.93511152 37.6134882,1.34083951 35.9519802,0.711973245 C33.795723,-0.104151257 31.3241729,0.711973245 28.4853135,0.711973245 C27.3928547,0.711973245 26.3519802,0.711973245 24.2186468,0.711973257 C22.0853135,0.711973257 21.1007341,2.08520479 19.9519802,2.30380993 C18.4902837,2.5819673 16.581228,2.4206933 15.1519802,2.83442217 C13.6861614,3.25873734 12.7700357,4.89273044 11.4186468,5.48748365 C10.0416317,6.0935151 8.35392266,6.34063919 7.15198018,7.07932039 C5.27140647,8.2350699 4.48531351,9.73238161 3.41864685,11.8548306 C2.35198018,13.9772796 0.218646847,16.0034314 0.218646847,19.2834018 C0.218646847,31.0053639 3.95198018,29.8956467 10.3519802,31.4874834 Z" id="Oval-74" sketch:type="MSShapeGroup"></path>
                <path d="M55.4186468,23.7936059 C55.4186468,23.7936059 54.6186468,25.1201365 53.0186468,25.9160549 C51.4186468,26.7119732 49.2853135,25.9160549 49.2853135,25.9160549" id="Line" sketch:type="MSShapeGroup"></path>
                <path d="M15.9519802,3.09972835 C15.9519802,3.09972835 18.3008666,5.63083295 18.2258042,7.60993243 C18.1775857,8.88126531 16.4336557,10.4741273 15.9519802,10.7936059" id="Line" sketch:type="MSShapeGroup"></path>
                <path d="M18.6186468,7.87523855 L21.2853135,8.4058508" id="Line" sketch:type="MSShapeGroup"></path>
                <path d="M28.2135405,1.24931275 C28.2135405,1.24931275 29.2454198,4.27550546 27.9383634,6.385525 C26.6313069,8.49554455 29.1646622,8.48390695 29.7563211,10.6600462 C30.0103916,11.5945252 25.5144199,14.4002518 25.5144199,14.4002518" id="Line-Copy-8" sketch:type="MSShapeGroup"></path>
                <path d="M36.7519802,9.46707529 C36.7519802,9.46707529 39.0374685,8.41560702 39.6853135,7.60993243 C40.4596907,6.64689954 41.0186468,4.16095284 41.0186468,4.16095284" id="Line" sketch:type="MSShapeGroup"></path>
                <path d="M41.8186468,12.916055 C41.8186468,12.916055 44.9041352,12.6605051 45.5519802,11.8548305 C46.3263574,10.8917976 46.8853135,7.82478226 46.8853135,7.82478226" id="Line-Copy-9" sketch:type="MSShapeGroup"></path>
                <path d="M46.8853135,15.30381 L45.2853135,12.1201365" id="Line" sketch:type="MSShapeGroup"></path>
                <path d="M36.7519802,33.6099324 C36.7519802,33.6099324 36.1250313,37.8721226 36.7519802,39.9772794 C37.5472535,42.6476328 41.0186468,48.2017692 41.0186468,48.2017692" id="Line" sketch:type="MSShapeGroup"></path>
                <path d="M22.6186468,34.6711569 C22.6186468,34.6711569 27.5150953,36.2581216 31.1519802,35.7323814 C33.9806081,35.3234811 37.0911331,32.0302314 41.2853135,30.9568712 C43.4408716,30.4052282 46.2083631,31.0561682 48.2186468,30.9568712 C51.6490915,30.787426 54.0853135,29.3650345 54.0853135,29.3650345" id="Line" sketch:type="MSShapeGroup"></path>
                <path d="M4.75198018,9.99768753 C4.75198018,9.99768753 6.08531351,13.4466671 8.75198018,15.0385039 C11.4186468,16.6303406 15.6853135,15.5691161 15.6853135,15.5691161" id="Line" sketch:type="MSShapeGroup"></path>
                <path d="M9.01864685,14.7731977 L11.6853135,12.6507488" id="Line" sketch:type="MSShapeGroup"></path>
                <path d="M29.2853135,10.5282998 L31.9519802,13.181361" id="Line" sketch:type="MSShapeGroup"></path>
                <path d="M28.7519802,27.5078916 C28.7519802,27.5078916 27.1519802,29.3650345 27.1519802,30.9568712 C27.1519802,32.5487079 27.1519802,35.4670753 27.1519802,35.4670753" id="Line" sketch:type="MSShapeGroup"></path>
                <path d="M17.2853136,26.181361 C17.2853136,26.181361 19.9519802,26.7119732 19.9519802,28.8344222 C19.9519802,30.9568712 19.0996535,32.5487079 19.0996535,32.5487079" id="Line-Copy-10" sketch:type="MSShapeGroup"></path>
                <path d="M4.21864685,22.2017692 C4.21864685,22.2017692 6.08531351,21.4058508 8.21864685,22.2017692 C10.3519802,22.9976875 11.1519802,25.3854426 11.1519802,25.3854426" id="Line" sketch:type="MSShapeGroup"></path>
                <path d="M7.41864685,19.608844 C7.41864685,19.608844 8.14847143,21.6909477 10.155489,22.7319996 C12.1625065,23.7730514 14.3519802,22.5237892 14.3519802,22.5237892" id="Line-Copy-13" sketch:type="MSShapeGroup"></path>
                <path d="M28.1011327,29.3312682 C28.1011327,29.3312682 29.9677994,30.1271866 31.5677994,30.1271866 C33.1677994,30.1271866 34.2344661,28.5353499 34.2344661,28.5353499" id="Line" sketch:type="MSShapeGroup"></path>
                <path d="M31.4801631,22.2740355 C31.4801631,22.2740355 32.128241,17.1125802 34.5900998,17.7612711 C37.0519586,18.409962 37.1926631,21.6927371 37.1926631,21.6927371" id="Line" sketch:type="MSShapeGroup"></path>
                <path d="M42.3958188,21.6998705 C42.3958188,21.6998705 40.571968,24.2804918 38.2767101,23.6012651 C35.9814522,22.9220384 36.8409157,19.9077884 36.8409157,19.9077884" id="Line-Copy-14" sketch:type="MSShapeGroup"></path>
            </g>
        </g>
    </g>
</svg>