<?xml version="1.0" encoding="UTF-8" standalone="no"?>
<svg width="64px" height="64px" viewBox="0 0 64 64" version="1.1" xmlns="http://www.w3.org/2000/svg" xmlns:xlink="http://www.w3.org/1999/xlink" xmlns:sketch="http://www.bohemiancoding.com/sketch/ns">
    <!-- Generator: Sketch 3.3.3 (12081) - http://www.bohemiancoding.com/sketch -->
    <title>icon_audience_purchase</title>
    <desc>Created with Sketch.</desc>
    <defs></defs>
    <g id="Icons" stroke="none" stroke-width="1" fill="none" fill-rule="evenodd" sketch:type="MSPage">
        <g id="icon_audience_purchase" sketch:type="MSArtboardGroup" stroke-width="3" stroke-linecap="round" stroke-linejoin="round">
            <path d="M31.9851012,24.0982693 C32.0418862,21.7097451 32.0146586,19.0174273 31.7253749,17.1556049 C31.2075367,13.8228122 28.2558185,7.0948473 28.2558185,7.0948473 C28.2558185,7.0948473 32.4688512,4.8863883 36.681884,4.15023531 C40.8949168,3.41408231 43.6209968,5.6225413 43.6209968,5.6225413" id="Rectangle-334" stroke="#FFD605" sketch:type="MSShapeGroup"></path>
            <path d="M36.0370273,28.4536452 C36.0370273,28.4536452 39.285466,22.0540885 41.1591509,17.3781628 C43.0328358,12.702237 44.555636,6.29415716 44.555636,6.29415716 C44.555636,6.29415716 48.7102693,6.28137787 53,9.99999989 C57.2897307,13.7186219 57.7832509,18.4577851 57.7832509,18.4577851 C57.7832509,18.4577851 54.1923672,19.7164635 50.5512532,22.3582315 C46.9101391,24.9999995 44.9129563,29.7441682 44.9129563,29.7441682" id="Rectangle-334-Copy" stroke="#FFD605" sketch:type="MSShapeGroup"></path>
            <path d="M7.21674911,36.026137 L15.1297674,36.026137 C17.7995381,36.026137 25.2906112,25.2363078 31.9060002,24.8431513 L31.9060001,30.1196883 C41.9060001,31.9260017 47.9060001,29.2402654 48.9060002,31.8785339 C49.9060002,34.5168024 46.9060001,33.6698526 46.9060001,35.3962253 C46.9060001,37.1225979 48.9060002,37.1550709 48.9060002,38.9139166 C48.9060002,40.6727622 46.9060001,40.5375783 46.9060002,42.4316079 C46.9060002,44.3256375 48.9060001,44.1904536 48.9060002,45.9492992 C48.9060002,47.7081449 45.9060002,47.5875677 45.9060001,49.0000002 C45.906,50.4124326 47.9060001,50.3464134 45.9060002,52.9846819 C43.9060002,55.6229504 33.3251368,54.0418684 25.7862621,53.9210171 C13.9655147,53.7315255 8.21674911,55 8.21674911,55" id="Rectangle-333" stroke="#215CFF" sketch:type="MSShapeGroup"></path>
        </g>
    </g>
</svg>