<?xml version="1.0" encoding="UTF-8" standalone="no"?>
<svg width="76px" height="62px" viewBox="0 0 76 62" version="1.1" xmlns="http://www.w3.org/2000/svg" xmlns:xlink="http://www.w3.org/1999/xlink" xmlns:sketch="http://www.bohemiancoding.com/sketch/ns">
    <!-- Generator: Sketch 3.3.3 (12081) - http://www.bohemiancoding.com/sketch -->
    <title>Group</title>
    <desc>Created with Sketch.</desc>
    <defs></defs>
    <g id="Page-1" stroke="none" stroke-width="1" fill="none" fill-rule="evenodd" sketch:type="MSPage">
        <g id="Interactive-Display" sketch:type="MSArtboardGroup" transform="translate(-532.000000, -3585.000000)" stroke-linecap="round" stroke-width="4" stroke-linejoin="round">
            <g id="Group" sketch:type="MSLayerGroup" transform="translate(534.000000, 3587.052845)">
                <path d="M8,13.5597927 L8,6.93478261 L19.010322,6.93478261 M27.2354028,6.93478261 L44.8326641,6.93478261 M53.0513817,6.93478261 L64,6.93478261 L64,13.0933196 M64,23.310462 L64,34.946301 M64,42.4863588 L64,50.0652174 L53.0229183,50.0652174 M45.3487215,50.0652174 L27.4318282,50.0652174 M18.9818586,50.0652174 L8,50.0652174 L8,42.9584478 M8,34.2111917 L8,22.9542199" id="Rectangle-76" stroke="#FFD605" sketch:type="MSShapeGroup"></path>
                <rect id="Rectangle-67" stroke="#0038CC" sketch:type="MSShapeGroup" x="0" y="0.185546875" width="20" height="15"></rect>
                <rect id="Rectangle-67-Copy" stroke="#0038CC" sketch:type="MSShapeGroup" x="26" y="0.185546875" width="20" height="15"></rect>
                <rect id="Rectangle-67-Copy-2" stroke="#0038CC" sketch:type="MSShapeGroup" x="52" y="0.185546875" width="20" height="15"></rect>
                <rect id="Rectangle-67-Copy-5" stroke="#0038CC" sketch:type="MSShapeGroup" x="0" y="21.1855469" width="20" height="15"></rect>
                <rect id="Rectangle-67-Copy-3" stroke="#0038CC" sketch:type="MSShapeGroup" x="26" y="21.1855469" width="20" height="15"></rect>
                <rect id="Rectangle-67-Copy-4" stroke="#0038CC" sketch:type="MSShapeGroup" x="52" y="21.1855469" width="20" height="15"></rect>
                <rect id="Rectangle-67-Copy-8" stroke="#0038CC" sketch:type="MSShapeGroup" x="0" y="42.1855469" width="20" height="15"></rect>
                <rect id="Rectangle-67-Copy-6" stroke="#0038CC" sketch:type="MSShapeGroup" x="26" y="42.1855469" width="20" height="15"></rect>
                <rect id="Rectangle-67-Copy-7" stroke="#0038CC" sketch:type="MSShapeGroup" x="52" y="42.1855469" width="20" height="15"></rect>
            </g>
        </g>
    </g>
</svg>