<?xml version="1.0" encoding="UTF-8" standalone="no"?>
<svg width="64px" height="64px" viewBox="0 0 64 64" version="1.1" xmlns="http://www.w3.org/2000/svg" xmlns:xlink="http://www.w3.org/1999/xlink" xmlns:sketch="http://www.bohemiancoding.com/sketch/ns">
    <!-- Generator: Sketch 3.3.3 (12081) - http://www.bohemiancoding.com/sketch -->
    <title>icon_transform-performances copy</title>
    <desc>Created with Sketch.</desc>
    <defs></defs>
    <g id="Icons" stroke="none" stroke-width="1" fill="none" fill-rule="evenodd" sketch:type="MSPage">
        <g id="icon_transform-performances-copy" sketch:type="MSArtboardGroup" stroke-width="3" stroke-linecap="round" stroke-linejoin="round">
            <path d="M4,45 L60,45" id="Rectangle-335" stroke="#0038CC" sketch:type="MSShapeGroup"></path>
            <path d="M3,53.9375609 L3,5 L61,5 L61,54" id="Rectangle-335-Copy" stroke="#0038CC" sketch:type="MSShapeGroup"></path>
            <path d="M21.75,58 C21.75,55.2385763 19.3435305,53 16.375,53 C13.4064695,53 11,55.2385763 11,58" id="Oval-74-Copy-3" stroke="#FFD605" sketch:type="MSShapeGroup"></path>
            <path d="M54,58 C54,55.2385763 51.5935305,53 48.625,53 C45.6564695,53 43.25,55.2385763 43.25,58" id="Oval-74-Copy-4" stroke="#FFD605" sketch:type="MSShapeGroup"></path>
            <path d="M37.875,58 C37.875,55.2385763 35.4685305,53 32.5,53 C29.5314695,53 27.125,55.2385763 27.125,58" id="Oval-74-Copy-5" stroke="#FFD605" sketch:type="MSShapeGroup"></path>
            <g id="Oval-74-Copy-3-+-Oval-74-Copy-4-+-Oval-74-Copy-5-Copy" sketch:type="MSLayerGroup" transform="translate(18.500000, 48.000000)" stroke="#FFD605">
                <path d="M10.75,5 C10.75,2.23857625 8.34353053,0 5.375,0 C2.40646947,0 0,2.23857625 0,5" id="Oval-74-Copy-3" sketch:type="MSShapeGroup"></path>
                <path d="M26.875,5 C26.875,2.23857625 24.4685305,0 21.5,0 C18.5314695,0 16.125,2.23857625 16.125,5" id="Oval-74-Copy-5" sketch:type="MSShapeGroup"></path>
            </g>
            <path d="M60.5,6 L45,43.5" id="Line-Copy-2" stroke="#0038CC" sketch:type="MSShapeGroup" transform="translate(52.750000, 24.750000) scale(-1, 1) translate(-52.750000, -24.750000) "></path>
            <path d="M60.5,6 L35,43.5" id="Line-Copy-7" stroke="#0038CC" sketch:type="MSShapeGroup" transform="translate(47.750000, 24.750000) scale(-1, 1) translate(-47.750000, -24.750000) "></path>
            <path d="M60.5,5 L53,43.5" id="Line-Copy-3" stroke="#0038CC" sketch:type="MSShapeGroup" transform="translate(56.750000, 24.250000) scale(-1, 1) translate(-56.750000, -24.250000) "></path>
            <path d="M19,6 L3.5,43.5" id="Line-Copy-5" stroke="#0038CC" sketch:type="MSShapeGroup"></path>
            <path d="M29,6 L3.5,43.5" id="Line-Copy-6" stroke="#0038CC" sketch:type="MSShapeGroup"></path>
            <path d="M11,5 L3.5,43.5" id="Line-Copy-4" stroke="#0038CC" sketch:type="MSShapeGroup"></path>
        </g>
    </g>
</svg>